# This file uses centimeters as units for non-parametric coordinates.

mtllib skull.mtl
o default
v -0.154143 -0.266330 -0.119765
v -0.181130 -0.226687 -0.023731
v -0.086616 -0.313240 -0.264807
v -0.097719 -0.307190 -0.202571
v -0.153846 -0.035955 -0.124363
v -0.050706 -0.323324 -0.259269
v -0.053977 -0.319260 -0.294888
v -0.050624 -0.179015 -0.304823
v -0.115179 -0.304282 -0.217232
v -0.159588 -0.237119 -0.024309
v -0.108664 -0.201364 -0.170971
v -0.084660 -0.234267 -0.260031
v -0.046741 -0.242557 -0.291372
v -0.098573 -0.221064 -0.207348
v -0.106480 -0.174422 -0.121571
v -0.093610 -0.171018 -0.246126
v -0.105564 -0.160410 -0.177293
v -0.164536 -0.034368 -0.135593
v -0.201896 -0.027150 -0.027734
v -0.169915 -0.028060 -0.004966
v -0.196513 -0.027400 -0.003945
v -0.088169 -0.194977 -0.252696
v -0.050806 -0.203063 -0.303830
v -0.106738 -0.178756 -0.181193
v -0.126991 -0.181583 -0.136929
v -0.179555 -0.085371 -0.079056
v -0.161647 -0.085371 -0.079056
v -0.150408 -0.188200 -0.129175
v -0.099641 -0.162104 -0.130100
v -0.112385 -0.163809 -0.134914
v -0.109428 -0.148843 -0.136355
v -0.093292 -0.148843 -0.139405
v -0.044176 -0.177831 -0.293451
v -0.074879 -0.171353 -0.242146
v -0.086023 -0.162760 -0.174027
v -0.044176 -0.201274 -0.293451
v -0.076339 -0.194796 -0.242146
v -0.086023 -0.186203 -0.174027
v -0.135642 -0.272073 -0.109919
v -0.000000 -0.321134 -0.303094
v 0.154143 -0.266330 -0.119765
v -0.000000 -0.324931 -0.275823
v 0.181130 -0.226687 -0.023731
v 0.086616 -0.313240 -0.264807
v 0.097719 -0.307190 -0.202571
v -0.000000 -0.180682 -0.321395
v 0.153846 -0.035955 -0.124363
v 0.050706 -0.323324 -0.259269
v 0.053977 -0.319260 -0.294888
v 0.050624 -0.179015 -0.304823
v 0.115179 -0.304282 -0.217232
v 0.159588 -0.237119 -0.024309
v -0.000000 -0.245067 -0.307238
v 0.108664 -0.201364 -0.170971
v 0.084660 -0.234267 -0.260031
v 0.046741 -0.242557 -0.291372
v 0.098573 -0.221064 -0.207348
v 0.106480 -0.174422 -0.121571
v 0.093610 -0.171018 -0.246126
v 0.105564 -0.160410 -0.177293
v 0.164536 -0.034368 -0.135593
v 0.201896 -0.027150 -0.027734
v 0.169915 -0.028060 -0.004966
v 0.196513 -0.027400 -0.003945
v 0.088169 -0.194977 -0.252696
v 0.050806 -0.203063 -0.303830
v 0.106738 -0.178756 -0.181193
v -0.000000 -0.204874 -0.318023
v 0.126991 -0.181583 -0.136929
v 0.179555 -0.085371 -0.079056
v 0.161647 -0.085371 -0.079056
v 0.150408 -0.188200 -0.129175
v 0.099641 -0.162104 -0.130100
v 0.112385 -0.163809 -0.134914
v 0.109428 -0.148843 -0.136355
v 0.093292 -0.148843 -0.139405
v -0.000000 -0.179181 -0.306255
v 0.044176 -0.177831 -0.293451
v 0.074879 -0.171353 -0.242146
v 0.086023 -0.162760 -0.174027
v -0.000000 -0.202624 -0.306255
v 0.044176 -0.201274 -0.293451
v 0.076339 -0.194796 -0.242146
v 0.086023 -0.186203 -0.174027
v -0.000000 -0.302444 -0.309156
v 0.135642 -0.272073 -0.109919
vt 0.739467 0.182915
vt 0.726818 0.156964
vt 0.753429 0.147251
vt 0.725199 0.195787
vt 0.729193 0.137247
vt 0.752419 0.197609
vt 0.704595 0.127669
vt 0.758423 0.197546
vt 0.706735 0.250332
vt 0.686804 0.251537
vt 0.689065 0.239531
vt 0.710067 0.237036
vt 0.704643 0.258241
vt 0.685285 0.259129
vt 0.715038 0.227856
vt 0.720744 0.230435
vt 0.716651 0.248481
vt 0.714610 0.261386
vt 0.720031 0.219264
vt 0.725374 0.229451
vt 0.722697 0.246823
vt 0.720679 0.261636
vt 0.724516 0.218756
vt 0.728293 0.219120
vt 0.721838 0.215389
vt 0.724947 0.217541
vt 0.746845 0.084717
vt 0.729654 0.086886
vt 0.736858 0.056352
vt 0.746845 0.090634
vt 0.729654 0.092802
vt 0.716416 0.089859
vt 0.713475 0.065215
vt 0.759793 0.083082
vt 0.751167 0.052281
vt 0.720917 0.096315
vt 0.718568 0.092968
vt 0.759793 0.088999
vt 0.691870 0.074036
vt 0.686988 0.126797
vt 0.705686 0.112333
vt 0.717120 0.124804
vt 0.668384 0.199823
vt 0.654421 0.164159
vt 0.681032 0.173872
vt 0.655431 0.214517
vt 0.678657 0.154155
vt 0.682652 0.212695
vt 0.649428 0.214454
vt 0.703255 0.144577
vt 0.751437 0.214361
vt 0.754769 0.227657
vt 0.733767 0.225162
vt 0.731506 0.213156
vt 0.765446 0.234257
vt 0.761353 0.216212
vt 0.759740 0.236837
vt 0.749345 0.206451
vt 0.729987 0.205564
vt 0.759312 0.203307
vt 0.770076 0.235241
vt 0.767399 0.217870
vt 0.764733 0.245428
vt 0.769218 0.245937
vt 0.765381 0.203057
vt 0.772995 0.245573
vt 0.769649 0.247152
vt 0.766540 0.249304
vt 0.772711 0.160105
vt 0.782699 0.131740
vt 0.789902 0.162274
vt 0.759763 0.158470
vt 0.768389 0.127669
vt 0.803141 0.165247
vt 0.806081 0.140603
vt 0.772711 0.166022
vt 0.789902 0.168190
vt 0.759763 0.164387
vt 0.800988 0.168356
vt 0.827687 0.149424
vt 0.798640 0.171703
vt 0.832568 0.202185
vt 0.813870 0.187721
vt 0.802436 0.200192
vt 0.678617 0.097993
vt 0.674439 0.085196
vt 0.683428 0.084371
vt 0.685499 0.097993
vt 0.675837 0.076133
vt 0.683428 0.111615
vt 0.674439 0.110790
vt 0.660130 0.073331
vt 0.663830 0.068925
vt 0.675837 0.119852
vt 0.636747 0.063761
vt 0.639232 0.059091
vt 0.660130 0.122654
vt 0.663830 0.127061
vt 0.615142 0.057717
vt 0.614996 0.052281
vt 0.639232 0.136894
vt 0.636747 0.132225
vt 0.614996 0.143705
vt 0.615142 0.138268
vt 0.831210 0.273019
vt 0.824497 0.272762
vt 0.832568 0.267016
vt 0.822411 0.254064
vt 0.826930 0.254064
vt 0.820442 0.242629
vt 0.823140 0.239795
vt 0.614996 0.243005
vt 0.619179 0.230229
vt 0.622049 0.231856
vt 0.618817 0.243005
vt 0.633992 0.219381
vt 0.634996 0.224108
vt 0.622049 0.254154
vt 0.619179 0.255781
vt 0.651363 0.216364
vt 0.652188 0.221295
vt 0.634996 0.261902
vt 0.633992 0.266629
vt 0.661695 0.215389
vt 0.660925 0.219461
vt 0.652188 0.264715
vt 0.651363 0.269646
vt 0.660925 0.266549
vt 0.661695 0.270622
vt 0.808334 0.273019
vt 0.806975 0.267016
vt 0.815046 0.272762
vt 0.812614 0.254064
vt 0.817133 0.254064
vt 0.816404 0.239795
vt 0.819102 0.242629
vt 0.665753 0.215555
vt 0.672466 0.215389
vt 0.668583 0.265683
vt 0.663147 0.268315
vt 0.815558 0.222254
vt 0.815558 0.207773
vt 0.829180 0.203529
vt 0.827354 0.222887
vt 0.803762 0.222887
vt 0.801936 0.203529
vt 0.815558 0.203057
vt 0.815558 0.232397
vt 0.828380 0.232854
vt 0.802736 0.232854
vt 0.815558 0.238503
vt 0.828334 0.238923
vt 0.802782 0.238923
vt 0.787486 0.240180
vt 0.787486 0.209314
vt 0.798635 0.208973
vt 0.800283 0.239775
vt 0.774689 0.239775
vt 0.776337 0.208973
vt 0.787486 0.203397
vt 0.798635 0.203057
vt 0.776337 0.203057
vt 0.638612 0.175542
vt 0.635631 0.144577
vt 0.644522 0.173872
vt 0.648088 0.212695
vt 0.633436 0.177349
vt 0.645390 0.212295
vt 0.805205 0.243012
vt 0.801858 0.244614
vt 0.801858 0.240541
vt 0.805635 0.239795
vt 0.680928 0.215555
vt 0.683535 0.268315
vt 0.678098 0.265683
vt 0.674216 0.215389
vt 0.626919 0.175542
vt 0.621010 0.173872
vt 0.629900 0.144577
vt 0.617444 0.212695
vt 0.632096 0.177349
vt 0.620142 0.212295
vt 0.800087 0.242655
vt 0.800518 0.245871
vt 0.796741 0.245125
vt 0.796741 0.241052
vn -0.942067 -0.113123 -0.315775
vn -0.942067 -0.113123 -0.315775
vn -0.942067 -0.113123 -0.315775
vn 0.811984 0.085002 0.577457
vn 0.811984 0.085002 0.577457
vn 0.811984 0.085002 0.577457
vn 0.811984 0.085002 0.577457
vn -0.970989 -0.096664 0.218716
vn -0.970989 -0.096664 0.218716
vn -0.970989 -0.096664 0.218716
vn -0.645446 0.078575 -0.759753
vn -0.645446 0.078575 -0.759753
vn -0.645446 0.078575 -0.759753
vn -0.645446 0.078575 -0.759753
vn 0.011225 -0.094681 0.995444
vn 0.011225 -0.094681 0.995444
vn 0.011225 -0.094681 0.995444
vn 0.011225 -0.094681 0.995444
vn -0.293310 0.054510 -0.954462
vn -0.293310 0.054510 -0.954462
vn -0.293310 0.054510 -0.954462
vn -0.293310 0.054510 -0.954462
vn -0.061483 -0.990790 -0.120640
vn -0.061483 -0.990790 -0.120640
vn -0.061483 -0.990790 -0.120640
vn -0.061483 -0.990790 -0.120640
vn -0.900149 0.140288 -0.412373
vn -0.900149 0.140288 -0.412373
vn -0.900149 0.140288 -0.412373
vn -0.900149 0.140288 -0.412373
vn -0.968929 -0.038332 -0.244349
vn -0.968929 -0.038332 -0.244349
vn -0.968929 -0.038332 -0.244349
vn -0.968929 -0.038332 -0.244349
vn -0.293954 -0.281436 -0.913447
vn -0.293954 -0.281436 -0.913447
vn -0.293954 -0.281436 -0.913447
vn -0.293954 -0.281436 -0.913447
vn -0.744938 -0.114351 -0.657261
vn -0.744938 -0.114351 -0.657261
vn -0.744938 -0.114351 -0.657261
vn -0.744938 -0.114351 -0.657261
vn 0.619158 0.180131 -0.764327
vn 0.619158 0.180131 -0.764327
vn 0.619158 0.180131 -0.764327
vn 0.619158 0.180131 -0.764327
vn -0.411351 -0.877882 0.245180
vn -0.411351 -0.877882 0.245180
vn -0.411351 -0.877882 0.245180
vn -0.411351 -0.877882 0.245180
vn 0.293908 0.236996 0.925986
vn 0.293908 0.236996 0.925986
vn 0.293908 0.236996 0.925986
vn 0.293908 0.236996 0.925986
vn 0.979019 -0.131387 0.155755
vn 0.979019 -0.131387 0.155755
vn 0.979019 -0.131387 0.155755
vn 0.908846 -0.229879 0.348073
vn 0.908846 -0.229879 0.348073
vn 0.908846 -0.229879 0.348073
vn 0.877934 -0.000930 0.478780
vn 0.877934 -0.000930 0.478780
vn 0.877934 -0.000930 0.478780
vn -0.808327 -0.020189 -0.588387
vn -0.808327 -0.020189 -0.588387
vn -0.808327 -0.020189 -0.588387
vn -0.808327 -0.020189 -0.588387
vn -0.291878 -0.085100 -0.952662
vn -0.291878 -0.085100 -0.952662
vn -0.291878 -0.085100 -0.952662
vn -0.291878 -0.085100 -0.952662
vn -0.977891 -0.048271 -0.203469
vn -0.977891 -0.048271 -0.203469
vn -0.977891 -0.048271 -0.203469
vn -0.977891 -0.048271 -0.203469
vn -0.750219 0.310001 -0.584012
vn -0.750219 0.310001 -0.584012
vn -0.750219 0.310001 -0.584012
vn -0.394726 0.476246 -0.785736
vn -0.394726 0.476246 -0.785736
vn -0.394726 0.476246 -0.785736
vn -0.539130 0.526527 0.657349
vn -0.539130 0.526527 0.657349
vn -0.539130 0.526527 0.657349
vn -0.539130 0.526527 0.657349
vn -0.949850 -0.104760 -0.294635
vn -0.949850 -0.104760 -0.294635
vn -0.949850 -0.104760 -0.294635
vn -0.219181 0.718861 0.659696
vn -0.219181 0.718861 0.659696
vn -0.219181 0.718861 0.659696
vn -0.219181 0.718861 0.659696
vn 0.291274 0.737970 -0.608736
vn 0.291274 0.737970 -0.608736
vn 0.291274 0.737970 -0.608736
vn 0.291274 0.737970 -0.608736
vn 0.024981 0.999676 0.004849
vn 0.024981 0.999676 0.004849
vn 0.024981 0.999676 0.004849
vn -0.967372 -0.031269 -0.251422
vn -0.967372 -0.031269 -0.251422
vn -0.967372 -0.031269 -0.251422
vn 0.834579 0.294872 0.465326
vn 0.834579 0.294872 0.465326
vn 0.834579 0.294872 0.465326
vn 0.682674 0.612885 -0.397904
vn 0.682674 0.612885 -0.397904
vn 0.682674 0.612885 -0.397904
vn -0.901134 0.223915 -0.371242
vn -0.901134 0.223915 -0.371242
vn -0.901134 0.223915 -0.371242
vn -0.296504 -0.066979 -0.952680
vn -0.296504 -0.066979 -0.952680
vn -0.296504 -0.066979 -0.952680
vn -0.928592 -0.000302 -0.371102
vn -0.928592 -0.000302 -0.371102
vn -0.928592 -0.000302 -0.371102
vn -0.935530 -0.100058 -0.338779
vn -0.935530 -0.100058 -0.338779
vn -0.935530 -0.100058 -0.338779
vn -0.961243 0.012785 -0.275405
vn -0.961243 0.012785 -0.275405
vn -0.961243 0.012785 -0.275405
vn -0.253605 -0.966083 0.048658
vn -0.253605 -0.966083 0.048658
vn -0.253605 -0.966083 0.048658
vn -0.253605 -0.966083 0.048658
vn -0.991261 0.025960 -0.129335
vn -0.991261 0.025960 -0.129335
vn -0.991261 0.025960 -0.129335
vn -0.980211 0.132418 -0.147143
vn -0.980211 0.132418 -0.147143
vn -0.980211 0.132418 -0.147143
vn -0.980211 0.132418 -0.147143
vn -0.078667 0.377255 0.922762
vn -0.078667 0.377255 0.922762
vn -0.078667 0.377255 0.922762
vn -0.078667 0.377255 0.922762
vn 0.000408 0.994903 -0.100836
vn 0.000408 0.994903 -0.100836
vn 0.000408 0.994903 -0.100836
vn 0.000408 0.994903 -0.100836
vn 0.032812 0.993526 -0.108761
vn 0.032812 0.993526 -0.108761
vn 0.032812 0.993526 -0.108761
vn 0.032812 0.993526 -0.108761
vn 0.092578 0.988090 -0.122915
vn 0.092578 0.988090 -0.122915
vn 0.092578 0.988090 -0.122915
vn 0.092578 0.988090 -0.122915
vn 0.064340 0.948426 -0.310400
vn 0.064340 0.948426 -0.310400
vn 0.064340 0.948426 -0.310400
vn 0.064340 0.948426 -0.310400
vn 0.850893 -0.026498 0.524670
vn 0.850893 -0.026498 0.524670
vn 0.850893 -0.026498 0.524670
vn 0.850893 -0.026498 0.524670
vn 0.278402 -0.000000 0.960465
vn 0.278402 -0.000000 0.960465
vn 0.278402 -0.000000 0.960465
vn 0.278402 -0.000000 0.960465
vn 0.987460 -0.030751 0.154844
vn 0.987460 -0.030751 0.154844
vn 0.987460 -0.030751 0.154844
vn 0.987460 -0.030751 0.154844
vn 0.950950 -0.089419 0.296138
vn 0.950950 -0.089419 0.296138
vn 0.950950 -0.089419 0.296138
vn 0.950950 -0.089419 0.296138
vn 0.891114 -0.219939 0.396916
vn 0.891114 -0.219939 0.396916
vn 0.891114 -0.219939 0.396916
vn -0.257008 -0.962556 -0.086209
vn -0.257008 -0.962556 -0.086209
vn -0.257008 -0.962556 -0.086209
vn -0.153482 -0.304856 -0.939950
vn -0.153482 -0.304856 -0.939950
vn -0.153482 -0.304856 -0.939950
vn -0.570204 0.538855 -0.620083
vn -0.570204 0.538855 -0.620083
vn -0.570204 0.538855 -0.620083
vn -0.358739 -0.910667 0.204922
vn -0.358739 -0.910667 0.204922
vn -0.358739 -0.910667 0.204922
vn -0.358739 -0.910667 0.204922
vn 0.885550 -0.197954 0.420255
vn 0.885550 -0.197954 0.420255
vn 0.885550 -0.197954 0.420255
vn 0.885550 -0.197954 0.420255
vn 0.942067 -0.113123 -0.315775
vn 0.942067 -0.113123 -0.315775
vn 0.942067 -0.113123 -0.315775
vn -0.811984 0.085002 0.577457
vn -0.811984 0.085002 0.577457
vn -0.811984 0.085002 0.577457
vn -0.811984 0.085002 0.577457
vn 0.970989 -0.096664 0.218716
vn 0.970989 -0.096664 0.218716
vn 0.970989 -0.096664 0.218716
vn 0.645446 0.078575 -0.759753
vn 0.645446 0.078575 -0.759753
vn 0.645446 0.078575 -0.759753
vn 0.645446 0.078575 -0.759753
vn -0.011225 -0.094681 0.995444
vn -0.011225 -0.094681 0.995444
vn -0.011225 -0.094681 0.995444
vn -0.011225 -0.094681 0.995444
vn 0.293310 0.054510 -0.954462
vn 0.293310 0.054510 -0.954462
vn 0.293310 0.054510 -0.954462
vn 0.293310 0.054510 -0.954462
vn 0.061484 -0.990790 -0.120640
vn 0.061484 -0.990790 -0.120640
vn 0.061484 -0.990790 -0.120640
vn 0.061484 -0.990790 -0.120640
vn 0.900149 0.140288 -0.412373
vn 0.900149 0.140288 -0.412373
vn 0.900149 0.140288 -0.412373
vn 0.900149 0.140288 -0.412373
vn 0.968929 -0.038332 -0.244349
vn 0.968929 -0.038332 -0.244349
vn 0.968929 -0.038332 -0.244349
vn 0.968929 -0.038332 -0.244349
vn 0.293954 -0.281436 -0.913447
vn 0.293954 -0.281436 -0.913447
vn 0.293954 -0.281436 -0.913447
vn 0.293954 -0.281436 -0.913447
vn 0.744938 -0.114351 -0.657261
vn 0.744938 -0.114351 -0.657261
vn 0.744938 -0.114351 -0.657261
vn 0.744938 -0.114351 -0.657261
vn -0.619158 0.180131 -0.764327
vn -0.619158 0.180131 -0.764327
vn -0.619158 0.180131 -0.764327
vn -0.619158 0.180131 -0.764327
vn 0.411352 -0.877882 0.245180
vn 0.411352 -0.877882 0.245180
vn 0.411352 -0.877882 0.245180
vn 0.411352 -0.877882 0.245180
vn -0.293908 0.236996 0.925986
vn -0.293908 0.236996 0.925986
vn -0.293908 0.236996 0.925986
vn -0.293908 0.236996 0.925986
vn -0.979019 -0.131387 0.155755
vn -0.979019 -0.131387 0.155755
vn -0.979019 -0.131387 0.155755
vn -0.908846 -0.229879 0.348073
vn -0.908846 -0.229879 0.348073
vn -0.908846 -0.229879 0.348073
vn -0.877934 -0.000930 0.478780
vn -0.877934 -0.000930 0.478780
vn -0.877934 -0.000930 0.478780
vn 0.808328 -0.020189 -0.588387
vn 0.808328 -0.020189 -0.588387
vn 0.808328 -0.020189 -0.588387
vn 0.808328 -0.020189 -0.588387
vn 0.291878 -0.085100 -0.952662
vn 0.291878 -0.085100 -0.952662
vn 0.291878 -0.085100 -0.952662
vn 0.291878 -0.085100 -0.952662
vn 0.977891 -0.048271 -0.203469
vn 0.977891 -0.048271 -0.203469
vn 0.977891 -0.048271 -0.203469
vn 0.977891 -0.048271 -0.203469
vn 0.750219 0.310001 -0.584012
vn 0.750219 0.310001 -0.584012
vn 0.750219 0.310001 -0.584012
vn 0.394726 0.476246 -0.785736
vn 0.394726 0.476246 -0.785736
vn 0.394726 0.476246 -0.785736
vn 0.539130 0.526527 0.657349
vn 0.539130 0.526527 0.657349
vn 0.539130 0.526527 0.657349
vn 0.539130 0.526527 0.657349
vn 0.949850 -0.104760 -0.294635
vn 0.949850 -0.104760 -0.294635
vn 0.949850 -0.104760 -0.294635
vn 0.219181 0.718861 0.659696
vn 0.219181 0.718861 0.659696
vn 0.219181 0.718861 0.659696
vn 0.219181 0.718861 0.659696
vn -0.291274 0.737970 -0.608736
vn -0.291274 0.737970 -0.608736
vn -0.291274 0.737970 -0.608736
vn -0.291274 0.737970 -0.608736
vn -0.024981 0.999676 0.004849
vn -0.024981 0.999676 0.004849
vn -0.024981 0.999676 0.004849
vn 0.967372 -0.031269 -0.251422
vn 0.967372 -0.031269 -0.251422
vn 0.967372 -0.031269 -0.251422
vn -0.834579 0.294872 0.465326
vn -0.834579 0.294872 0.465326
vn -0.834579 0.294872 0.465326
vn -0.682674 0.612885 -0.397904
vn -0.682674 0.612885 -0.397904
vn -0.682674 0.612885 -0.397904
vn 0.901134 0.223915 -0.371242
vn 0.901134 0.223915 -0.371242
vn 0.901134 0.223915 -0.371242
vn 0.296504 -0.066979 -0.952680
vn 0.296504 -0.066979 -0.952680
vn 0.296504 -0.066979 -0.952680
vn 0.928592 -0.000302 -0.371102
vn 0.928592 -0.000302 -0.371102
vn 0.928592 -0.000302 -0.371102
vn 0.935530 -0.100058 -0.338779
vn 0.935530 -0.100058 -0.338779
vn 0.935530 -0.100058 -0.338779
vn 0.961243 0.012785 -0.275405
vn 0.961243 0.012785 -0.275405
vn 0.961243 0.012785 -0.275405
vn 0.253605 -0.966083 0.048658
vn 0.253605 -0.966083 0.048658
vn 0.253605 -0.966083 0.048658
vn 0.253605 -0.966083 0.048658
vn 0.991261 0.025960 -0.129335
vn 0.991261 0.025960 -0.129335
vn 0.991261 0.025960 -0.129335
vn 0.980211 0.132417 -0.147143
vn 0.980211 0.132417 -0.147143
vn 0.980211 0.132417 -0.147143
vn 0.980211 0.132417 -0.147143
vn 0.078667 0.377255 0.922762
vn 0.078667 0.377255 0.922762
vn 0.078667 0.377255 0.922762
vn 0.078667 0.377255 0.922762
vn -0.000408 0.994903 -0.100836
vn -0.000408 0.994903 -0.100836
vn -0.000408 0.994903 -0.100836
vn -0.000408 0.994903 -0.100836
vn -0.032811 0.993526 -0.108761
vn -0.032811 0.993526 -0.108761
vn -0.032811 0.993526 -0.108761
vn -0.032811 0.993526 -0.108761
vn -0.092578 0.988090 -0.122915
vn -0.092578 0.988090 -0.122915
vn -0.092578 0.988090 -0.122915
vn -0.092578 0.988090 -0.122915
vn -0.064340 0.948426 -0.310400
vn -0.064340 0.948426 -0.310400
vn -0.064340 0.948426 -0.310400
vn -0.064340 0.948426 -0.310400
vn -0.850893 -0.026498 0.524670
vn -0.850893 -0.026498 0.524670
vn -0.850893 -0.026498 0.524670
vn -0.850893 -0.026498 0.524670
vn -0.278402 -0.000000 0.960465
vn -0.278402 -0.000000 0.960465
vn -0.278402 -0.000000 0.960465
vn -0.278402 -0.000000 0.960465
vn -0.987460 -0.030751 0.154844
vn -0.987460 -0.030751 0.154844
vn -0.987460 -0.030751 0.154844
vn -0.987460 -0.030751 0.154844
vn -0.950950 -0.089419 0.296138
vn -0.950950 -0.089419 0.296138
vn -0.950950 -0.089419 0.296138
vn -0.950950 -0.089419 0.296138
vn -0.891114 -0.219939 0.396916
vn -0.891114 -0.219939 0.396916
vn -0.891114 -0.219939 0.396916
vn 0.257008 -0.962556 -0.086209
vn 0.257008 -0.962556 -0.086209
vn 0.257008 -0.962556 -0.086209
vn 0.153482 -0.304856 -0.939950
vn 0.153482 -0.304856 -0.939950
vn 0.153482 -0.304856 -0.939950
vn 0.570204 0.538855 -0.620083
vn 0.570204 0.538855 -0.620083
vn 0.570204 0.538855 -0.620083
vn 0.358739 -0.910666 0.204922
vn 0.358739 -0.910666 0.204922
vn 0.358739 -0.910666 0.204922
vn 0.358739 -0.910666 0.204922
vn -0.885550 -0.197954 0.420255
vn -0.885550 -0.197954 0.420255
vn -0.885550 -0.197954 0.420255
vn -0.885550 -0.197954 0.420255
usemtl texture
s 1
f 26/1/1 28/2/2 2/3/3
f 36/34/4 37/27/5 4/29/6 6/35/7
f 19/6/8 2/3/9 21/8/10
f 13/13/11 7/14/12 3/10/13 12/9/14
f 20/137/15 21/138/16 2/139/17 10/140/18
f 53/141/19 85/142/20 7/143/21 13/144/22
f 42/85/23 6/86/24 7/87/25 40/88/26
f 12/9/27 3/10/28 9/11/29 14/12/30
f 24/16/31 22/17/32 12/9/33 14/12/34
f 68/148/35 53/141/36 13/144/37 23/149/38
f 23/18/39 13/13/40 12/9/41 22/17/42
f 15/167/43 25/163/44 18/166/45 5/168/46
f 39/95/47 10/99/48 2/100/49 1/96/50
f 42/154/51 81/155/52 36/156/53 6/157/54
f 37/27/55 38/28/56 4/29/57
f 15/32/58 10/39/59 39/33/60
f 15/32/61 20/40/62 10/39/63
f 8/22/64 23/18/65 22/17/66 16/21/67
f 46/151/68 68/148/69 23/149/70 8/152/71
f 17/20/72 16/21/73 22/17/74 24/16/75
f 9/11/76 25/19/77 11/15/78
f 25/163/79 9/164/80 28/165/81
f 25/19/82 15/25/83 29/26/84 30/23/85
f 19/6/86 26/1/87 2/3/88
f 27/108/89 5/110/90 18/111/91 26/109/92
f 20/106/93 27/108/94 26/109/95 19/107/96
f 21/105/97 20/106/98 19/107/99
f 11/15/100 24/16/101 14/12/102
f 27/41/103 15/32/104 5/42/105
f 15/32/106 27/41/107 20/40/108
f 14/12/109 9/11/110 11/15/111
f 18/166/112 25/163/113 28/165/114
f 9/7/115 1/5/116 28/2/117
f 18/4/118 28/2/119 26/1/120
f 28/2/121 1/5/122 2/3/123
f 4/92/124 9/93/125 3/89/126 6/86/127
f 30/23/128 24/16/129 11/15/130
f 17/20/131 24/16/132 30/23/133 31/24/134
f 29/169/135 32/170/136 31/171/137 30/172/138
f 46/112/139 8/113/140 33/114/141 77/115/142
f 8/113/143 16/116/144 34/117/145 33/114/146
f 16/116/147 17/120/148 35/121/149 34/117/150
f 17/120/151 31/124/152 32/125/153 35/121/154
f 33/38/155 34/30/156 37/27/157 36/34/158
f 77/160/159 33/161/160 36/156/161 81/155/162
f 34/30/163 35/31/164 38/28/165 37/27/166
f 35/31/167 32/36/168 29/37/169 38/28/170
f 38/28/171 29/37/172 15/32/173
f 7/87/174 6/86/175 3/89/176
f 7/143/177 85/142/178 40/147/179
f 25/19/180 30/23/181 11/15/182
f 4/92/183 39/95/184 1/96/185 9/93/186
f 15/32/187 39/33/188 4/29/189 38/28/190
f 70/43/191 43/44/192 72/45/193
f 82/72/194 48/73/195 45/70/196 83/69/197
f 62/46/198 64/49/199 43/44/200
f 56/58/201 55/51/202 44/54/203 49/59/204
f 63/173/205 52/174/206 43/175/207 64/176/208
f 53/141/209 56/145/210 49/146/211 85/142/212
f 42/85/213 40/88/214 49/90/215 48/91/216
f 55/51/217 57/52/218 51/53/219 44/54/220
f 67/55/221 57/52/222 55/51/223 65/56/224
f 68/148/225 66/150/226 56/145/227 53/141/228
f 66/60/229 65/56/230 55/51/231 56/58/232
f 58/181/233 47/182/234 61/180/235 69/177/236
f 86/102/237 41/101/238 43/103/239 52/104/240
f 42/154/241 48/158/242 82/159/243 81/155/244
f 83/69/245 45/70/246 84/71/247
f 58/74/248 86/75/249 52/80/250
f 58/74/251 52/80/252 63/82/253
f 50/65/254 59/62/255 65/56/256 66/60/257
f 46/151/258 50/153/259 66/150/260 68/148/261
f 60/61/262 67/55/263 65/56/264 59/62/265
f 51/53/266 54/57/267 69/63/268
f 69/177/269 72/178/270 51/179/271
f 69/63/272 74/64/273 73/67/274 58/68/275
f 62/46/276 43/44/277 70/43/278
f 71/134/279 70/133/280 61/135/281 47/136/282
f 63/132/283 62/131/284 70/133/285 71/134/286
f 64/130/287 62/131/288 63/132/289
f 54/57/290 57/52/291 67/55/292
f 71/83/293 47/84/294 58/74/295
f 58/74/296 63/82/297 71/83/298
f 57/52/299 54/57/300 51/53/301
f 61/180/302 72/178/303 69/177/304
f 51/50/305 72/45/306 41/47/307
f 61/48/308 70/43/309 72/45/310
f 72/45/311 43/44/312 41/47/313
f 45/97/314 48/91/315 44/94/316 51/98/317
f 74/64/318 54/57/319 67/55/320
f 60/61/321 75/66/322 74/64/323 67/55/324
f 73/183/325 74/184/326 75/185/327 76/186/328
f 46/112/329 77/115/330 78/118/331 50/119/332
f 50/119/333 78/118/334 79/122/335 59/123/336
f 59/123/337 79/122/338 80/126/339 60/127/340
f 60/127/341 80/126/342 76/128/343 75/129/344
f 78/78/345 82/72/346 83/69/347 79/76/348
f 77/160/349 81/155/350 82/159/351 78/162/352
f 79/76/353 83/69/354 84/71/355 80/77/356
f 80/77/357 84/71/358 73/79/359 76/81/360
f 84/71/361 58/74/362 73/79/363
f 49/90/364 44/94/365 48/91/366
f 49/146/367 40/147/368 85/142/369
f 69/63/370 54/57/371 74/64/372
f 45/97/373 51/98/374 41/101/375 86/102/376
f 58/74/377 84/71/378 45/70/379 86/75/380
