# This file uses centimeters as units for non-parametric coordinates.

mtllib em_miner.mtl
g default
v 1.002778 0.596443 0.403557
v 1.002778 0.500000 0.363609
v 1.002778 0.403557 0.403557
v 1.002778 0.363609 0.500000
v 1.002778 0.403557 0.596443
v 1.002778 0.500000 0.636391
v 1.002778 0.596443 0.596443
v 1.002778 0.636391 0.500000
v -0.002778 0.596443 0.596443
v -0.002778 0.500000 0.636391
v -0.002778 0.403557 0.596443
v -0.002778 0.363609 0.500000
v -0.002778 0.403557 0.403557
v -0.002778 0.500000 0.363609
v -0.002778 0.596443 0.403557
v -0.002778 0.636391 0.500000
v 1.002778 0.615510 0.384490
v 1.002778 0.500000 0.336644
v 1.002778 0.384490 0.384490
v 1.002778 0.336644 0.500000
v 1.002778 0.384490 0.615510
v 1.002778 0.500000 0.663356
v 1.002778 0.615510 0.615510
v 1.002778 0.663356 0.500000
v -0.002778 0.615510 0.615510
v -0.002778 0.500000 0.663356
v -0.002778 0.384490 0.615510
v -0.002778 0.336644 0.500000
v -0.002778 0.384490 0.384490
v -0.002778 0.500000 0.336644
v -0.002778 0.615510 0.384490
v -0.002778 0.663356 0.500000
vt 0.795193 0.795193
vt 0.917466 0.500000
vt 1.000000 0.500000
vt 0.853554 0.853554
vt 0.795193 0.204807
vt 0.853554 0.146446
vt 0.500000 0.082534
vt 0.500000 0.000000
vt 0.204807 0.204807
vt 0.146446 0.146446
vt 0.082534 0.500000
vt -0.000000 0.500000
vt 0.204807 0.795193
vt 0.146446 0.853554
vt 0.500000 0.917466
vt 0.500000 1.000000
vt 0.204807 0.795193
vt 0.082534 0.500000
vt 0.000000 0.500000
vt 0.146446 0.853553
vt 0.204807 0.204807
vt 0.146446 0.146446
vt 0.500000 0.082534
vt 0.500000 0.000000
vt 0.795193 0.204807
vt 0.853554 0.146446
vt 0.917466 0.500000
vt 1.000000 0.500000
vt 0.795193 0.795193
vt 0.853554 0.853553
vt 0.500000 0.917466
vt 0.500000 1.000000
vn 1.000000 0.000001 0.000000
vn 1.000000 0.000000 0.000000
vn 1.000000 0.000000 0.000000
vn 1.000000 0.000001 0.000000
vn 1.000000 0.000000 0.000000
vn 1.000000 -0.000001 0.000000
vn 1.000000 -0.000001 0.000000
vn 1.000000 0.000000 0.000000
vn 1.000000 -0.000001 0.000000
vn 1.000000 -0.000002 0.000000
vn 1.000000 -0.000002 0.000000
vn 1.000000 -0.000001 0.000000
vn 1.000000 -0.000002 0.000000
vn 1.000000 -0.000001 0.000000
vn 1.000000 -0.000001 0.000000
vn 1.000000 -0.000002 0.000000
vn 1.000000 -0.000001 0.000000
vn 1.000000 0.000000 0.000000
vn 1.000000 0.000000 0.000000
vn 1.000000 -0.000001 0.000000
vn 1.000000 0.000000 0.000000
vn 1.000000 0.000001 0.000000
vn 1.000000 0.000001 0.000000
vn 1.000000 0.000000 0.000000
vn 1.000000 0.000001 0.000000
vn 1.000000 0.000002 0.000000
vn 1.000000 0.000002 0.000000
vn 1.000000 0.000001 0.000000
vn 1.000000 0.000002 0.000000
vn 1.000000 0.000001 0.000000
vn 1.000000 0.000001 0.000000
vn 1.000000 0.000002 0.000000
vn -1.000000 0.000000 0.000000
vn -1.000000 0.000000 0.000000
vn -1.000000 0.000000 0.000000
vn -1.000000 0.000000 0.000000
vn -1.000000 0.000000 0.000000
vn -1.000000 0.000000 0.000000
vn -1.000000 0.000000 0.000000
vn -1.000000 0.000000 0.000000
vn -1.000000 0.000000 0.000000
vn -1.000000 0.000000 0.000000
vn -1.000000 0.000000 0.000000
vn -1.000000 0.000000 0.000000
vn -1.000000 0.000000 0.000000
vn -1.000000 0.000000 0.000000
vn -1.000000 0.000000 0.000000
vn -1.000000 0.000000 0.000000
vn -1.000000 0.000000 0.000000
vn -1.000000 0.000000 0.000000
vn -1.000000 0.000000 0.000000
vn -1.000000 0.000000 0.000000
vn -1.000000 0.000000 0.000000
vn -1.000000 0.000000 0.000000
vn -1.000000 0.000000 0.000000
vn -1.000000 0.000000 0.000000
vn -1.000000 0.000000 0.000000
vn -1.000000 0.000000 0.000000
vn -1.000000 0.000000 0.000000
vn -1.000000 0.000000 0.000000
vn -1.000000 0.000000 0.000000
vn -1.000000 0.000000 0.000000
vn -1.000000 0.000000 0.000000
vn -1.000000 0.000000 0.000000
g circle
usemtl circle
f 1/1/1 2/2/2 18/3/3 17/4/4
f 2/2/5 3/5/6 19/6/7 18/3/8
f 3/5/9 4/7/10 20/8/11 19/6/12
f 4/7/13 5/9/14 21/10/15 20/8/16
f 5/9/17 6/11/18 22/12/19 21/10/20
f 6/11/21 7/13/22 23/14/23 22/12/24
f 7/13/25 8/15/26 24/16/27 23/14/28
f 8/15/29 1/1/30 17/4/31 24/16/32
f 9/17/33 10/18/34 26/19/35 25/20/36
f 10/18/37 11/21/38 27/22/39 26/19/40
f 11/21/41 12/23/42 28/24/43 27/22/44
f 12/23/45 13/25/46 29/26/47 28/24/48
f 13/25/49 14/27/50 30/28/51 29/26/52
f 14/27/53 15/29/54 31/30/55 30/28/56
f 15/29/57 16/31/58 32/32/59 31/30/60
f 16/31/61 9/17/62 25/20/63 32/32/64
