# This file uses centimeters as units for non-parametric coordinates.

mtllib sword.mtl
g default
v 0.044510 1.013806 0.000000
v 0.106775 0.584479 0.000000
v 0.106775 0.959481 0.000000
v 0.044510 2.142473 0.000000
v -0.000000 2.210835 0.000000
v 0.106775 0.959481 -0.012128
v 0.044510 1.013806 -0.012128
v 0.106775 0.584479 -0.012128
v 0.044510 2.142473 -0.012128
v -0.000000 2.210835 -0.012128
v 0.073645 0.959481 -0.022830
v 0.044510 0.983890 -0.022830
v 0.074014 0.584480 -0.022830
v 0.044510 0.584480 -0.022830
v -0.000000 2.142473 -0.012128
v -0.000000 1.013806 -0.012128
v -0.000000 0.584481 -0.022830
v -0.000000 0.983890 -0.022830
v -0.044510 1.013806 0.000000
v -0.106775 0.584479 0.000000
v -0.106775 0.959481 0.000000
v -0.044510 2.142473 0.000000
v -0.106775 0.959481 -0.012128
v -0.044510 1.013806 -0.012128
v -0.106775 0.584479 -0.012128
v -0.044510 2.142473 -0.012128
v -0.073645 0.959481 -0.022830
v -0.044510 0.983890 -0.022830
v -0.074014 0.584480 -0.022830
v -0.044510 0.584480 -0.022830
v 0.044510 1.013806 0.000000
v 0.106775 0.584479 -0.000000
v 0.106775 0.959481 -0.000000
v 0.044510 2.142473 -0.000000
v -0.000000 2.210835 -0.000000
v 0.106775 0.959481 0.012128
v 0.044510 1.013806 0.012128
v 0.106775 0.584479 0.012128
v 0.044510 2.142473 0.012128
v -0.000000 2.210835 0.012128
v 0.073645 0.959481 0.022830
v 0.044510 0.983890 0.022830
v 0.074014 0.584480 0.022830
v 0.044510 0.584480 0.022830
v -0.000000 2.142473 0.012128
v -0.000000 1.013806 0.012128
v -0.000000 0.584481 0.022830
v -0.000000 0.983890 0.022830
v -0.044510 1.013806 0.000000
v -0.106775 0.584479 -0.000000
v -0.106775 0.959481 -0.000000
v -0.044510 2.142473 -0.000000
v -0.106775 0.959481 0.012128
v -0.044510 1.013806 0.012128
v -0.106775 0.584479 0.012128
v -0.044510 2.142473 0.012128
v -0.073645 0.959481 0.022830
v -0.044510 0.983890 0.022830
v -0.074014 0.584480 0.022830
v -0.044510 0.584480 0.022830
v 0.209939 0.584480 -0.000000
v 0.163286 0.584480 -0.017153
v -0.163286 0.584480 -0.017153
v -0.206779 0.570736 -0.000000
v 0.209939 2.265718 -0.000000
v 0.163286 2.251108 -0.017153
v -0.163286 2.251108 -0.017153
v -0.209939 2.265718 -0.000000
v -0.000000 2.410599 -0.017153
v -0.000000 2.474329 -0.000000
v 0.163286 0.584480 0.019387
v -0.163286 0.584480 0.019387
v 0.163286 2.251108 0.019387
v -0.163286 2.251108 0.019387
v -0.000000 2.410599 0.019387
vt 0.550890 0.472849
vt 0.584201 0.464216
vt 0.584623 0.331582
vt 0.550890 0.331582
vt 0.550890 0.882626
vt 0.500000 0.882626
vt 0.500000 0.906805
vt 0.550890 0.483430
vt 0.500000 0.483430
vt 0.500000 0.331583
vt 0.500000 0.472849
vt 0.550890 0.483430
vt 0.622081 0.464216
vt 0.622081 0.464216
vt 0.622081 0.331582
vt 0.622081 0.331582
vt 0.500000 0.906805
vt 0.550890 0.882626
vt 0.449110 0.472849
vt 0.449110 0.331582
vt 0.415377 0.331582
vt 0.415799 0.464216
vt 0.449110 0.882626
vt 0.449110 0.483430
vt 0.449110 0.483430
vt 0.377920 0.464216
vt 0.377920 0.464216
vt 0.377920 0.331582
vt 0.377920 0.331582
vt 0.449110 0.882626
vt 0.550890 0.472849
vt 0.550890 0.331582
vt 0.584623 0.331582
vt 0.584201 0.464216
vt 0.550890 0.882626
vt 0.500000 0.906805
vt 0.500000 0.882626
vt 0.550890 0.483430
vt 0.500000 0.483430
vt 0.500000 0.472849
vt 0.500000 0.331583
vt 0.550890 0.483430
vt 0.622081 0.464216
vt 0.622081 0.464216
vt 0.622081 0.331582
vt 0.622081 0.331582
vt 0.500000 0.906805
vt 0.550890 0.882626
vt 0.449110 0.472849
vt 0.415799 0.464216
vt 0.415377 0.331582
vt 0.449110 0.331582
vt 0.449110 0.882626
vt 0.449110 0.483430
vt 0.449110 0.483430
vt 0.377920 0.464216
vt 0.377920 0.464216
vt 0.377920 0.331582
vt 0.377920 0.331582
vt 0.449110 0.882626
vt 0.686691 0.331583
vt 0.740032 0.331583
vt 0.740032 0.926217
vt 0.686691 0.921049
vt 0.263582 0.326722
vt 0.313309 0.331583
vt 0.313309 0.921049
vt 0.259969 0.926217
vt 0.500000 1.000000
vt 0.500000 0.977460
vt 0.686691 0.331583
vt 0.686691 0.921049
vt 0.313309 0.921049
vt 0.313309 0.331583
vt 0.500000 0.977460
vn -0.000000 0.000000 -1.000000
vn -0.000000 0.000000 -1.000000
vn -0.000000 0.000000 -1.000000
vn -0.000000 0.000000 -1.000000
vn 0.000000 0.000000 -1.000000
vn 0.000000 0.000000 -1.000000
vn 0.000000 0.000000 -1.000000
vn 0.000000 0.000000 -1.000000
vn 0.000000 0.000000 -1.000000
vn 0.000000 0.000000 -1.000000
vn 0.000000 0.000000 -1.000000
vn 0.000000 0.000000 -1.000000
vn 0.000000 0.000000 -1.000000
vn 0.657427 0.753518 0.000000
vn 0.657427 0.753518 0.000000
vn 0.587663 0.675623 -0.445181
vn 0.572662 0.658628 -0.488127
vn 1.000000 0.000000 0.000000
vn 1.000000 0.000000 0.000000
vn 0.569575 0.000131 -0.821940
vn 0.569573 0.000131 -0.821941
vn 0.838027 0.545628 0.000000
vn 0.838027 0.545628 0.000000
vn 0.838027 0.545628 0.000000
vn 0.838027 0.545628 0.000000
vn 1.000000 -0.000000 0.000000
vn 1.000000 -0.000000 0.000000
vn 1.000000 -0.000000 0.000000
vn 1.000000 -0.000000 0.000000
vn 0.283995 0.329681 -0.900365
vn 0.283995 0.329681 -0.900365
vn 0.308946 0.000152 -0.951080
vn 0.308946 0.000152 -0.951080
vn 0.000000 0.336835 -0.941564
vn 0.000000 0.336835 -0.941564
vn 0.000000 0.336835 -0.941564
vn 0.000000 0.336835 -0.941564
vn 0.000000 0.000000 -1.000000
vn 0.000000 0.000000 -1.000000
vn 0.000000 0.000000 -1.000000
vn 0.000000 0.000000 -1.000000
vn 0.000000 0.000000 -1.000000
vn 0.000000 0.000000 -1.000000
vn 0.000000 0.000000 -1.000000
vn 0.000000 0.000000 -1.000000
vn 0.000000 0.000000 -1.000000
vn 0.000000 0.000000 -1.000000
vn 0.000000 0.000000 -1.000000
vn 0.000000 0.000000 -1.000000
vn 0.000000 0.000000 -1.000000
vn -0.657427 0.753518 0.000000
vn -0.572662 0.658628 -0.488128
vn -0.587663 0.675622 -0.445182
vn -0.657427 0.753518 0.000000
vn -1.000000 0.000000 0.000000
vn -0.569574 0.000131 -0.821940
vn -0.569575 0.000131 -0.821940
vn -1.000000 0.000000 0.000000
vn -0.838027 0.545628 0.000000
vn -0.838027 0.545628 0.000000
vn -0.838027 0.545628 0.000000
vn -0.838027 0.545628 0.000000
vn -1.000000 -0.000000 0.000000
vn -1.000000 -0.000000 0.000000
vn -1.000000 -0.000000 0.000000
vn -1.000000 -0.000000 0.000000
vn -0.283995 0.329680 -0.900366
vn -0.283995 0.329680 -0.900366
vn -0.308946 0.000152 -0.951079
vn -0.308946 0.000152 -0.951079
vn 0.000000 0.336835 -0.941564
vn 0.000000 0.336835 -0.941564
vn 0.000000 0.336835 -0.941564
vn 0.000000 0.336835 -0.941564
vn -0.000000 0.000000 1.000000
vn -0.000000 0.000000 1.000000
vn -0.000000 0.000000 1.000000
vn -0.000000 0.000000 1.000000
vn 0.000000 0.000000 1.000000
vn 0.000000 0.000000 1.000000
vn 0.000000 0.000000 1.000000
vn 0.000000 0.000000 1.000000
vn 0.000000 0.000000 1.000000
vn -0.000000 0.000000 1.000000
vn -0.000000 0.000000 1.000000
vn -0.000000 0.000000 1.000000
vn -0.000000 0.000000 1.000000
vn 0.657427 0.753518 0.000000
vn 0.572662 0.658628 0.488127
vn 0.587663 0.675623 0.445181
vn 0.657427 0.753518 0.000000
vn 1.000000 0.000000 0.000000
vn 0.569574 0.000131 0.821940
vn 0.569575 0.000131 0.821940
vn 1.000000 0.000000 0.000000
vn 0.838027 0.545628 0.000000
vn 0.838027 0.545628 0.000000
vn 0.838027 0.545628 0.000000
vn 0.838027 0.545628 0.000000
vn 1.000000 -0.000000 0.000000
vn 1.000000 -0.000000 0.000000
vn 1.000000 -0.000000 0.000000
vn 1.000000 -0.000000 0.000000
vn 0.283995 0.329681 0.900365
vn 0.283995 0.329681 0.900365
vn 0.308947 0.000152 0.951079
vn 0.308947 0.000152 0.951079
vn 0.000000 0.336835 0.941564
vn 0.000000 0.336835 0.941564
vn 0.000000 0.336835 0.941564
vn 0.000000 0.336835 0.941564
vn 0.000000 0.000000 1.000000
vn 0.000000 0.000000 1.000000
vn 0.000000 0.000000 1.000000
vn 0.000000 0.000000 1.000000
vn 0.000000 0.000000 1.000000
vn 0.000000 0.000000 1.000000
vn 0.000000 0.000000 1.000000
vn 0.000000 0.000000 1.000000
vn 0.000000 0.000000 1.000000
vn 0.000000 0.000000 1.000000
vn 0.000000 0.000000 1.000000
vn 0.000000 0.000000 1.000000
vn 0.000000 0.000000 1.000000
vn -0.657427 0.753518 0.000000
vn -0.657427 0.753518 0.000000
vn -0.587663 0.675623 0.445181
vn -0.572662 0.658628 0.488127
vn -1.000000 0.000000 0.000000
vn -1.000000 0.000000 0.000000
vn -0.569575 0.000131 0.821940
vn -0.569573 0.000131 0.821940
vn -0.838027 0.545628 0.000000
vn -0.838027 0.545628 0.000000
vn -0.838027 0.545628 0.000000
vn -0.838027 0.545628 0.000000
vn -1.000000 -0.000000 0.000000
vn -1.000000 -0.000000 0.000000
vn -1.000000 -0.000000 0.000000
vn -1.000000 -0.000000 0.000000
vn -0.283995 0.329681 0.900365
vn -0.283995 0.329681 0.900365
vn -0.308946 0.000152 0.951079
vn -0.308946 0.000152 0.951079
vn 0.000000 0.336835 0.941564
vn 0.000000 0.336835 0.941564
vn 0.000000 0.336835 0.941564
vn 0.000000 0.336835 0.941564
vn 0.383737 0.000000 0.923442
vn 0.383737 0.000000 0.923442
vn 0.373725 0.033104 0.926949
vn 0.371441 0.040446 0.927575
vn -0.395123 -0.000371 0.918628
vn -0.395123 -0.000371 0.918628
vn -0.381029 0.041019 0.923653
vn -0.383624 0.033566 0.922879
vn -0.000000 0.297669 0.954669
vn -0.000000 0.297669 0.954669
vn 0.345092 0.000000 -0.938569
vn 0.333735 0.036383 -0.941965
vn 0.335870 0.029667 -0.941441
vn 0.345092 0.000000 -0.938569
vn -0.355684 -0.000334 -0.934606
vn -0.345059 0.030106 -0.938098
vn -0.342627 0.036928 -0.938746
vn -0.355684 -0.000334 -0.934606
vn 0.000000 0.265948 -0.963988
vn 0.000000 0.265948 -0.963988
vn -1.000000 -0.000000 0.000000
vn -1.000000 -0.000000 0.000000
vn -1.000000 -0.000000 0.000000
vn -1.000000 -0.000000 0.000000
vn 1.000000 0.000000 0.000000
vn 1.000000 0.000000 0.000000
vn 1.000000 0.000000 0.000000
vn 1.000000 0.000000 0.000000
vn -0.698746 -0.715370 0.000000
vn -0.698746 -0.715370 0.000000
vn -0.698746 -0.715370 0.000000
vn -0.698746 -0.715370 0.000000
vn 0.698746 -0.715370 0.000000
vn 0.698746 -0.715370 0.000000
vn 0.698746 -0.715370 0.000000
vn 0.698746 -0.715370 0.000000
g SmartCombine_3 group1
usemtl base
f 12/1/1 11/2/2 13/3/3 14/4/4
f 9/5/5 15/6/6 10/7/7
f 7/8/8 16/9/9 15/6/6 9/5/5
f 14/4/10 17/10/11 18/11/12 12/1/13
f 1/12/14 3/13/15 6/14/16 7/8/17
f 3/13/18 2/15/19 8/16/20 6/14/21
f 5/17/22 4/18/23 9/5/24 10/7/25
f 4/18/26 1/12/27 7/8/28 9/5/29
f 7/8/17 6/14/16 11/2/30 12/1/31
f 6/14/21 8/16/20 13/3/32 11/2/33
f 18/11/34 16/9/35 7/8/36 12/1/37
f 28/19/38 30/20/39 29/21/40 27/22/41
f 26/23/42 10/7/43 15/6/44
f 24/24/45 26/23/42 15/6/44 16/9/46
f 30/20/47 28/19/48 18/11/49 17/10/50
f 19/25/51 24/24/52 23/26/53 21/27/54
f 21/27/55 23/26/56 25/28/57 20/29/58
f 5/17/59 10/7/60 26/23/61 22/30/62
f 22/30/63 26/23/64 24/24/65 19/25/66
f 24/24/52 28/19/67 27/22/68 23/26/53
f 23/26/56 27/22/69 29/21/70 25/28/57
f 18/11/71 28/19/72 24/24/73 16/9/74
f 42/31/75 44/32/76 43/33/77 41/34/78
f 39/35/79 40/36/80 45/37/81
f 37/38/82 39/35/79 45/37/81 46/39/83
f 44/32/84 42/31/85 48/40/86 47/41/87
f 31/42/88 37/38/89 36/43/90 33/44/91
f 33/44/92 36/43/93 38/45/94 32/46/95
f 35/47/96 40/36/97 39/35/98 34/48/99
f 34/48/100 39/35/101 37/38/102 31/42/103
f 37/38/89 42/31/104 41/34/105 36/43/90
f 36/43/93 41/34/106 43/33/107 38/45/94
f 48/40/108 42/31/109 37/38/110 46/39/111
f 58/49/112 57/50/113 59/51/114 60/52/115
f 56/53/116 45/37/117 40/36/118
f 54/54/119 46/39/120 45/37/117 56/53/116
f 60/52/121 47/41/122 48/40/123 58/49/124
f 49/55/125 51/56/126 53/57/127 54/54/128
f 51/56/129 50/58/130 55/59/131 53/57/132
f 35/47/133 52/60/134 56/53/135 40/36/136
f 52/60/137 49/55/138 54/54/139 56/53/140
f 54/54/128 53/57/127 57/50/141 58/49/142
f 53/57/132 55/59/131 59/51/143 57/50/144
f 48/40/145 46/39/146 54/54/147 58/49/148
f 71/61/149 61/62/150 65/63/151 73/64/152
f 64/65/153 72/66/154 74/67/155 68/68/156
f 70/69/157 75/70/158 73/64/152 65/63/151
f 68/68/156 74/67/155 75/70/158 70/69/157
f 62/71/159 66/72/160 65/63/161 61/62/162
f 64/65/163 68/68/164 67/73/165 63/74/166
f 70/69/167 65/63/161 66/72/160 69/75/168
f 68/68/164 70/69/167 69/75/168 67/73/165
f 66/72/169 62/71/170 71/61/171 73/64/172
f 63/74/173 67/73/174 74/67/175 72/66/176
f 69/75/177 66/72/178 73/64/179 75/70/180
f 67/73/181 69/75/182 75/70/183 74/67/184
